<svg xmlns="http://www.w3.org/2000/svg" viewBox="0 0 328.54 58.05"><defs><style>.cls-1{fill:#181514;}.cls-2,.cls-6{fill:#fff;}.cls-2{stroke:#231f20;stroke-miterlimit:10;stroke-width:0.57px;}.cls-3{fill:#cf5533;}.cls-4{fill:#2f272a;}.cls-5,.cls-8{fill:#f6b233;}.cls-7{fill:#fff3e1;}.cls-8{font-size:6.87px;font-family:MyriadPro-BoldCond, Myriad Pro;font-weight:700;}</style></defs><title>Logo - походи- сайт 2</title><g id="OBJECTS"><path class="cls-1" d="M109.54,32.78h5.13a12.14,12.14,0,0,1,3.2.32,3.58,3.58,0,0,1,1.68.94,3.22,3.22,0,0,1,.76,1.48,13.26,13.26,0,0,1,.2,2.7v1.69a7,7,0,0,1-.39,2.72,2.64,2.64,0,0,1-1.42,1.31,6.76,6.76,0,0,1-2.71.46h-1.37v7.84h-5.1Zm5.1,3.33v5H115a1.19,1.19,0,0,0,1-.34,2.51,2.51,0,0,0,.27-1.42V37.7a1.87,1.87,0,0,0-.32-1.3A2,2,0,0,0,114.63,36.11Z" transform="translate(-21.07 -27.11)"/><path class="cls-1" d="M133.27,32.78l2.91,19.46H131l-.27-3.5h-1.82l-.31,3.5H123.3l2.6-19.46Zm-2.7,12.51q-.39-3.31-.78-8.17-.78,5.59-1,8.17Z" transform="translate(-21.07 -27.11)"/><path class="cls-1" d="M148.57,41.21a3,3,0,0,1,1.66,1.22q.55.85.54,4a9.7,9.7,0,0,1-.53,3.6A3.77,3.77,0,0,1,148.4,52a7.35,7.35,0,0,1-3.35.67,7.24,7.24,0,0,1-3.65-.78,3.77,3.77,0,0,1-1.74-1.9,12.55,12.55,0,0,1-.42-3.9V44.51h4.89v3.16a5.06,5.06,0,0,0,.15,1.6.65.65,0,0,0,.67.34.73.73,0,0,0,.75-.43,8,8,0,0,0,.18-2.26V45.58a3.92,3.92,0,0,0-.25-1.64,1.26,1.26,0,0,0-.75-.68,7.8,7.8,0,0,0-1.92-.19V40.25a10,10,0,0,0,2.15-.13.94.94,0,0,0,.59-.58,3.94,3.94,0,0,0,.18-1.39V37.07a2.81,2.81,0,0,0-.21-1.35.73.73,0,0,0-.66-.32.72.72,0,0,0-.7.34,3.6,3.6,0,0,0-.19,1.46v1.6h-4.89V37.14q0-2.79,1.28-3.77a6.76,6.76,0,0,1,4.08-1q3.5,0,4.75,1.36a5.37,5.37,0,0,1,1.25,3.77,4.68,4.68,0,0,1-.45,2.36A4,4,0,0,1,148.57,41.21Z" transform="translate(-21.07 -27.11)"/><path class="cls-1" d="M165.48,32.78l-1.79,8.61,2.7,10.85h-4.72a63.68,63.68,0,0,1-1.55-7.09q-.19,1.85-.54,3.92l-.48,3.17h-5L156,41.38l-1.85-8.61h4.93q.14.8.53,2.68.32,1.43.52,2.63l1.09-5.31Z" transform="translate(-21.07 -27.11)"/><path class="cls-1" d="M181.24,44.17q0,2.93-.14,4.15a4.64,4.64,0,0,1-.87,2.23,4.69,4.69,0,0,1-2,1.55,7.25,7.25,0,0,1-2.9.54,7.43,7.43,0,0,1-2.83-.51,4.64,4.64,0,0,1-2-1.53,4.59,4.59,0,0,1-.91-2.22,40.92,40.92,0,0,1-.14-4.21V40.84q0-2.93.14-4.15a4.62,4.62,0,0,1,.87-2.23,4.68,4.68,0,0,1,2-1.55,7.24,7.24,0,0,1,2.91-.54,7.43,7.43,0,0,1,2.83.51,4.64,4.64,0,0,1,2,1.53,4.6,4.6,0,0,1,.91,2.22,40.93,40.93,0,0,1,.14,4.21Zm-5.1-6.39A6,6,0,0,0,176,36a.6.6,0,0,0-.62-.38.7.7,0,0,0-.61.31,4.33,4.33,0,0,0-.21,1.81v9.09a8.82,8.82,0,0,0,.14,2.09.61.61,0,0,0,.65.4.63.63,0,0,0,.67-.46,9.5,9.5,0,0,0,.15-2.18Z" transform="translate(-21.07 -27.11)"/><path class="cls-1" d="M200.19,55.59h-3.52V52.24h-8.23v3.35h-3.51V48.17h1a33.86,33.86,0,0,0,1.35-6.29,63.93,63.93,0,0,0,.53-8.53v-.59h11.31V48.15h1ZM194,48.15V36.61h-1.51v.14a55.78,55.78,0,0,1-1.21,11.39Z" transform="translate(-21.07 -27.11)"/><path class="cls-1" d="M204.25,32.76h5.11l0,8.22q1.44,0,1.49-1.59l.1-3.8a4,4,0,0,1,.82-2.84h4.71a4.36,4.36,0,0,0-.68,2.93l0,3.34q0,3-3.44,3.45,3.46.42,3.44,3.5l0,3.1a5.42,5.42,0,0,0,.68,3.15h-4.71A3.75,3.75,0,0,1,211,49.4V45.6a1.56,1.56,0,0,0-.44-1.16,1.6,1.6,0,0,0-1.14-.45l0,8.25h-5.11Z" transform="translate(-21.07 -27.11)"/><path class="cls-1" d="M231.4,52.24h-4.26V43.38l-2.65,8.86H220V32.76h4.26v8.79l2.86-8.79h4.26Z" transform="translate(-21.07 -27.11)"/><path class="cls-1" d="M254.14,52.24h-4.26V43.38l-2.65,8.86h-4.47V32.76H247v8.79l2.86-8.79h4.26Z" transform="translate(-21.07 -27.11)"/><path class="cls-1" d="M278.34,52.33h-5.11V36.75h-1.49v11a6.42,6.42,0,0,1-.56,3.13,2.49,2.49,0,0,1-1.71,1.19,19.84,19.84,0,0,1-3.66.24H265V49a2.53,2.53,0,0,0,1.28-.23q.35-.23.35-1.56V32.86h11.71Z" transform="translate(-21.07 -27.11)"/><path class="cls-1" d="M282.86,32.87h8.5v3.89H288v3.69h3.18v3.7H288v4.28h3.74v3.89h-8.84Z" transform="translate(-21.07 -27.11)"/><path class="cls-1" d="M295.64,32.86h5.11l0,8.22q1.44,0,1.49-1.59l.1-3.8a4,4,0,0,1,.82-2.84h4.71a4.36,4.36,0,0,0-.68,2.93l0,3.34q0,3-3.44,3.45,3.46.42,3.44,3.5l0,3.1a5.42,5.42,0,0,0,.68,3.15h-4.71a3.75,3.75,0,0,1-.82-2.84v-3.8a1.56,1.56,0,0,0-.44-1.16,1.6,1.6,0,0,0-1.14-.45l0,8.25h-5.11Z" transform="translate(-21.07 -27.11)"/><path class="cls-1" d="M322.78,52.33h-4.26V43.47l-2.65,8.86h-4.47V32.86h4.26v8.79l2.86-8.79h4.26Z" transform="translate(-21.07 -27.11)"/><path class="cls-1" d="M94.44,76.54H89.34V61H87.82V76.54H82.72V57.07H94.44Z" transform="translate(-21.07 -27.11)"/><path class="cls-1" d="M110.6,68.48q0,2.93-.14,4.15a4.64,4.64,0,0,1-.87,2.23,4.69,4.69,0,0,1-2,1.55,7.25,7.25,0,0,1-2.9.54,7.43,7.43,0,0,1-2.83-.51,4.64,4.64,0,0,1-2-1.53A4.59,4.59,0,0,1,99,72.68a40.92,40.92,0,0,1-.14-4.21V65.15q0-2.93.14-4.15a4.62,4.62,0,0,1,.87-2.23,4.68,4.68,0,0,1,2-1.55,7.24,7.24,0,0,1,2.91-.54,7.43,7.43,0,0,1,2.83.51,4.64,4.64,0,0,1,2,1.53,4.6,4.6,0,0,1,.91,2.22,40.93,40.93,0,0,1,.14,4.21Zm-5.1-6.39a6,6,0,0,0-.15-1.74.6.6,0,0,0-.62-.38.7.7,0,0,0-.61.31,4.33,4.33,0,0,0-.21,1.81v9.09a8.82,8.82,0,0,0,.14,2.09.61.61,0,0,0,.65.4.63.63,0,0,0,.67-.46,9.5,9.5,0,0,0,.15-2.18Z" transform="translate(-21.07 -27.11)"/><path class="cls-1" d="M125.31,57.08l-1.79,8.61,2.7,10.85H121.5A63.68,63.68,0,0,1,120,69.45q-.19,1.85-.54,3.92l-.48,3.17h-5l1.85-10.85L114,57.08h4.93q.14.8.53,2.68.32,1.43.52,2.63L121,57.08Z" transform="translate(-21.07 -27.11)"/><path class="cls-1" d="M141.06,68.48q0,2.93-.14,4.15a4.64,4.64,0,0,1-.87,2.23,4.69,4.69,0,0,1-2,1.55,7.25,7.25,0,0,1-2.9.54,7.43,7.43,0,0,1-2.83-.51,4.64,4.64,0,0,1-2-1.53,4.59,4.59,0,0,1-.91-2.22,40.92,40.92,0,0,1-.14-4.21V65.15q0-2.93.14-4.15a4.62,4.62,0,0,1,.87-2.23,4.68,4.68,0,0,1,2-1.55,7.24,7.24,0,0,1,2.91-.54,7.43,7.43,0,0,1,2.83.51,4.64,4.64,0,0,1,2,1.53,4.6,4.6,0,0,1,.91,2.22,40.93,40.93,0,0,1,.14,4.21ZM136,62.08a6,6,0,0,0-.15-1.74.6.6,0,0,0-.62-.38.7.7,0,0,0-.61.31,4.33,4.33,0,0,0-.21,1.81v9.09a8.82,8.82,0,0,0,.14,2.09.61.61,0,0,0,.65.4.63.63,0,0,0,.67-.46A9.5,9.5,0,0,0,136,71Z" transform="translate(-21.07 -27.11)"/><path class="cls-1" d="M160,79.9H156.5V76.54h-8.23V79.9h-3.51V72.48h1a33.86,33.86,0,0,0,1.35-6.29,63.92,63.92,0,0,0,.53-8.53v-.59H159V72.45h1Zm-6.15-7.44V60.92h-1.51v.14a55.78,55.78,0,0,1-1.21,11.39Z" transform="translate(-21.07 -27.11)"/><path class="cls-1" d="M175.46,76.54H171.2V67.68l-2.65,8.86h-4.47V57.07h4.26v8.79l2.86-8.79h4.26Z" transform="translate(-21.07 -27.11)"/><path class="cls-1" d="M189.25,57.08h5.08a13.51,13.51,0,0,1,3.65.37A3.62,3.62,0,0,1,200,59a6.74,6.74,0,0,1,.76,3.66,3.91,3.91,0,0,1-.54,2.38,3.76,3.76,0,0,1-2.12,1,3.77,3.77,0,0,1,2.4,1.32,5,5,0,0,1,.63,2.82V72a7.11,7.11,0,0,1-.45,2.92,2.44,2.44,0,0,1-1.45,1.3,14.93,14.93,0,0,1-4.07.35h-5.89Zm5.1,3.33v4.33h.51q.75,0,1-.37a5.94,5.94,0,0,0,.21-2.1,3.37,3.37,0,0,0-.17-1.28.81.81,0,0,0-.44-.46A4,4,0,0,0,194.34,60.41Zm0,7.36v5.45a2.18,2.18,0,0,0,1.37-.34,2.35,2.35,0,0,0,.3-1.48V69.58a2.56,2.56,0,0,0-.27-1.51A2.41,2.41,0,0,0,194.34,67.77Z" transform="translate(-21.07 -27.11)"/><path class="cls-1" d="M224,76.54h-5.11V61h-1.51V76.54h-5.11V57.07H224Z" transform="translate(-21.07 -27.11)"/><path class="cls-1" d="M241,76.54h-5.11V61h-1.49V72a6.42,6.42,0,0,1-.56,3.13,2.49,2.49,0,0,1-1.71,1.19,19.84,19.84,0,0,1-3.66.24h-.8V73.19A2.53,2.53,0,0,0,228.9,73q.35-.23.35-1.56V57.07H241Z" transform="translate(-21.07 -27.11)"/><path class="cls-1" d="M254.27,57.08l2.91,19.46H252l-.27-3.5h-1.82l-.31,3.5h-5.27l2.6-19.46Zm-2.7,12.51q-.39-3.31-.78-8.17-.78,5.59-1,8.17Z" transform="translate(-21.07 -27.11)"/><path class="cls-1" d="M272.25,57.08V76.54h-5.1V68.37h-1.53v8.17h-5.1V57.08h5.1v7h1.53v-7Z" transform="translate(-21.07 -27.11)"/><path class="cls-1" d="M288.15,76.54h-4.26V67.68l-2.65,8.86h-4.47V57.07H281v8.79l2.86-8.79h4.26Z" transform="translate(-21.07 -27.11)"/><path class="cls-1" d="M304.38,57.08V76.54h-5.1V68.37h-1.53v8.17h-5.1V57.08h5.1v7h1.53v-7Z" transform="translate(-21.07 -27.11)"/><path class="cls-1" d="M317.72,57.08l2.91,19.46h-5.21l-.27-3.5h-1.82l-.31,3.5h-5.27l2.6-19.46ZM315,69.59q-.39-3.31-.78-8.17-.78,5.59-1,8.17Z" transform="translate(-21.07 -27.11)"/><path class="cls-1" d="M334.24,57.08V61h-3V76.54h-5.1V61h-3V57.08Z" transform="translate(-21.07 -27.11)"/><path class="cls-1" d="M346.69,57.08l2.91,19.46H344.4l-.27-3.5H342.3l-.31,3.5h-5.27l2.6-19.46ZM344,69.59q-.39-3.31-.78-8.17-.78,5.59-1,8.17Z" transform="translate(-21.07 -27.11)"/><circle class="cls-2" cx="29.03" cy="29.03" r="28.74"/><ellipse class="cls-3" cx="29.03" cy="29.03" rx="26.35" ry="26.17"/><path class="cls-4" d="M24.16,60.58C26.84,73.52,35.71,82.3,50,82.3S74.49,71.77,75.77,60.58a.29.29,0,0,0,0,0H24.16A.16.16,0,0,0,24.16,60.58Z" transform="translate(-21.07 -27.11)"/><path class="cls-5" d="M74.75,68.34H25.49A31.43,31.43,0,0,1,23,60.71c.68,0,52.83,0,54.26.06A40.19,40.19,0,0,1,74.75,68.34Z" transform="translate(-21.07 -27.11)"/><ellipse class="cls-5" cx="29.03" cy="29.03" rx="23.94" ry="23.77"/><path class="cls-6" d="M75.31,67,24.85,67a19.44,19.44,0,0,1-1.58-4.8H76.89A22.6,22.6,0,0,1,75.31,67Z" transform="translate(-21.07 -27.11)"/><ellipse class="cls-6" cx="29.03" cy="29.03" rx="22.79" ry="22.63"/><rect class="cls-7" x="15.18" y="42.65" width="13.7" height="0.35"/><rect class="cls-7" x="18.35" y="44.1" width="6.67" height="0.35"/><rect class="cls-7" x="37.47" y="44.1" width="4.77" height="0.35"/><rect class="cls-7" x="22.11" y="45.44" width="9.38" height="0.35"/><path class="cls-7" d="M32.32,42.89H67.87a22.61,22.61,0,0,0-35.55,0Z" transform="translate(-21.07 -27.11)"/><path class="cls-7" d="M44.6,50.44a1.07,1.07,0,0,0-1.43-.67,1.74,1.74,0,0,0-2.3-1.33,2.77,2.77,0,0,0-5.41.11,1.75,1.75,0,0,0-2.55,1.88Z" transform="translate(-21.07 -27.11)"/><path class="cls-7" d="M51.87,48.11a.73.73,0,0,1,1-.45,1.18,1.18,0,0,1,1.55-.9,1.87,1.87,0,0,1,3.65.08,1.18,1.18,0,0,1,1.73,1.27Z" transform="translate(-21.07 -27.11)"/><ellipse class="cls-1" cx="29.01" cy="29.14" rx="22.04" ry="21.89"/><ellipse class="cls-5" cx="29.01" cy="29.14" rx="18.16" ry="18.04"/><path class="cls-3" d="M56.88,54.82c-2.73.39-7.06,4.06-19.76,1.74-3-.54-2.16-1.38-5.23-.47a23.46,23.46,0,0,0,.64,5.1L57,69c6.52-2.91,11.27-4.73,11.27-11.91C68.24,56.59,59.92,54.39,56.88,54.82Z" transform="translate(-21.07 -27.11)"/><path class="cls-4" d="M68.12,56.71,68,56.26l-.39.23.32-.53-.55-2.2L67.11,55l.27.52L67,55.28l-.66,3-.25-1-.3.18.24-.4-.43-1.69-.21.94.21.4-.26-.17-.71,3.21L59.25,62l-.39-1.57-.22.13.18-.3L58.49,59l-.15.7.15.3-.19-.13-.5,2.27-.18-.71-.13.08.11-.18-.19-.74-.09.41.09.18-.11-.08L57,62.37h0l-.17-.76-.11.08.09-.18-.09-.41-.19.74.11.18-.13-.08-.14.54-.52.09s-.74-.65-3.35.28-8.25-1.79-9-2.18a16.29,16.29,0,0,0-3.2-.73,15.61,15.61,0,0,1-3.36-.84c-3.63-1.46-5-.69-5-.69,1.29,9.73,8.4,14,18.3,14A18.84,18.84,0,0,0,59,70.31l.08,0,.3-.24c.28-.15,1.47.65,1.74.49l1-1.23c3.77-1.83,5-6.73,5.42-8a12.83,12.83,0,0,0,.66-3.58C68.43,56.72,68,57.35,68.12,56.71Z" transform="translate(-21.07 -27.11)"/><path class="cls-7" d="M41.26,52.71a.7.7,0,0,0-.93-.43,1.14,1.14,0,0,0-1.5-.87,1.81,1.81,0,0,0-3.53.07,1.14,1.14,0,0,0-1.67,1.23Z" transform="translate(-21.07 -27.11)"/><path class="cls-7" d="M56.9,45.79a.73.73,0,0,0-1-.45,1.18,1.18,0,0,0-1.56-.9,1.88,1.88,0,0,0-3.67.08A1.19,1.19,0,0,0,49,45.79Z" transform="translate(-21.07 -27.11)"/><path class="cls-1" d="M49,58.6q0,2.51,0,5H49l0-3.07,0-2.09C49,58.49,49,58.55,49,58.6Z" transform="translate(-21.07 -27.11)"/><path class="cls-1" d="M66.08,65.62a.54.54,0,0,0-.18,0,2.61,2.61,0,0,1-1.44,0,.46.46,0,0,0-.17,0c-.32.25-.59,0-.88-.07a6.89,6.89,0,0,0-1.61.38,3,3,0,0,1-1,.08.7.7,0,0,1-.81-.48.92.92,0,0,0-.34-.46,4.74,4.74,0,0,1-1.63-2.41c-.26-.63-.58-.73-1.19-.34,0,.07.07.11.06.14s-.07,0-.1,0a1.13,1.13,0,0,0-.37-.06,1.77,1.77,0,0,0-.32,0,.63.63,0,0,1,0-.27c-.42-.12-.5-.76-1.06-.66-.15-.33.39-.66,0-1-.21,0-.43,0-.64,0l-.66.13a.11.11,0,0,0,0,.15c0,.07.13,0,.17.07a.75.75,0,0,1-.29,0c-.16,0-.39-.1-.5.11a3.13,3.13,0,0,0-.29-.19,1.41,1.41,0,0,1-.49-.42.3.3,0,0,1-.12-.1.56.56,0,0,1,0-.38l.05-.15-.11-.14L52,59.5c-.17,0-.35,0-.51-.07l-.14-.1-.25-.28-.44-1.27c-.28-.15-.09-.46-.23-.65-.16-.84-.85-.73-1.45-.78l0-3h0c.36-.31.26-.66.11-1a.22.22,0,0,0-.06.16.71.71,0,0,0-.06-.22c0-.17.13-.42-.13-.49s-.21.22-.3.36c-.3.47-.64.92-1.27.93a2,2,0,0,0,0-.8l-.1-.09c0-.13-.06-.28.08-.38l.28-.42h0l.23-.25h0a1.24,1.24,0,0,0-.38-1.82l0,.06a.18.18,0,0,1,0-.18A.6.6,0,0,0,48,49c.15-.15.38-.4.36-.62a.3.3,0,0,0,.17,0c.18-1.2.07-1.77-1-2.19a1.66,1.66,0,0,0-1.19.15c-.38.15-.49-.28-.77-.35a.45.45,0,0,0-.15.23l0,0,0,0a2.57,2.57,0,0,0-.09-.44.35.35,0,0,0-.12-.12l-.1,0c-.07-.23-.36-.27-.46-.47a1.9,1.9,0,0,0-.47-.32,1.52,1.52,0,0,0-1-.13.65.65,0,0,0-.34.19.47.47,0,0,0-.1.32.32.32,0,0,0-.3,0c-.4.24-.55.68-.8,1l-.07.15c-.08.18-.13.37-.21.54a1.48,1.48,0,0,0-.06.16c-.09.24-.13.5-.21.74a1.26,1.26,0,0,0,0,.17,1.72,1.72,0,0,0,0,.45c0,.12.07.23.09.35-.06-.09-.09-.21-.24-.14a4.7,4.7,0,0,1-.95,1.46,1.09,1.09,0,0,0-.31.34,5.62,5.62,0,0,0-.25.7c-.13.4.2.6.38.87l.14.22a.54.54,0,0,0,0,.08,3.11,3.11,0,0,0-.07.42v-.35l-.19.66h0c-.49.33-.3.84-.34,1.3a.68.68,0,0,0-.12.52,1.45,1.45,0,0,0,.1,1.39c.06.12.05.27.28.26a.4.4,0,0,0,.39-.26,2.93,2.93,0,0,0,.13-.48.64.64,0,0,1-.08-.13c-.06-.19,0-.37.06-.55a.29.29,0,0,0,0-.17l.22,0h.12a.27.27,0,0,0,.33-.1,1.53,1.53,0,0,0,0,.42,2.66,2.66,0,0,0,0,.34.44.44,0,0,0,.12.22,1.33,1.33,0,0,1,.28.42.48.48,0,0,0,.54.22.66.66,0,0,1,.77,0l.22.12a.75.75,0,0,1,.06.9.45.45,0,0,0,0,.17,1,1,0,0,0,.1.24c0,.18.16.36,0,.52a.22.22,0,0,0-.09.13c0,.35.34.44.52.64s.14.57.11.86a3.37,3.37,0,0,1-.41,2.09,1.49,1.49,0,0,0-.05.4c0,.28,0,.57,0,.85a.7.7,0,0,0,.07.24.31.31,0,0,0-.09.51.65.65,0,0,1,.07.54,2.07,2.07,0,0,0,0,.87v0c0,.12-.05.24-.08.36a.8.8,0,0,1-.06.16A1,1,0,0,1,41.63,66a1.36,1.36,0,0,0-.34-.16A3.34,3.34,0,0,0,40,65.7l-.27.07a1.32,1.32,0,0,1-.61,0H39a4.42,4.42,0,0,1-.54.06,1.9,1.9,0,0,1-.64-.08A1.81,1.81,0,0,0,36.5,66a.82.82,0,0,1-.84.24l-.17,0a1,1,0,0,0-.56.19c-.07.06.08.24-.1.21s.11-.23-.09-.27S33,68.82,34,69.82a8.71,8.71,0,0,0,1.43,1.4c1.16.68,2.33,1.33,3.53,1.95a3.81,3.81,0,0,0,1,.45c1.08.33,2.18.56,3.26.87.54.15,1.11.2,1.64.38a5.51,5.51,0,0,1,1.34.45.88.88,0,0,0,.5.09l-.07,0a3.64,3.64,0,0,0,1.21.09c.43-.13.88,0,1.31-.1s1.14-.05,1.72-.13c-.07-.18-.16-.21-.26-.19,2.28-.49,4.52-1.1,6.75-1.75.21-.06.43-.15.44-.42s.28-.45.52-.59c1.41-.82,2.92-1.44,4.29-2.32a7.29,7.29,0,0,0,2.14-1.67,6.63,6.63,0,0,1,2-1.74,1.69,1.69,0,0,0,.49-.62C66.9,65.76,66.42,65.91,66.08,65.62Zm-17-13a.23.23,0,0,1,0,.12A.52.52,0,0,0,49.11,52.67Zm-1.91,2a1.18,1.18,0,0,0,.09-.39,1.82,1.82,0,0,0,.86-.76.52.52,0,0,1,.62,0h0a17.34,17.34,0,0,1-.07,2.65c-.32,0-.65,0-1,0-.11,0-.34.15-.31-.16a.39.39,0,0,0,0-.16c-.06-.15-.17-.28-.22-.44A1,1,0,0,1,47.2,54.68ZM50,64.41h0Zm1.56-.92c0,.07,0,.15,0,.22a.48.48,0,0,1-.39-.1.55.55,0,0,0-.17-.06,1.86,1.86,0,0,0-1.23.71c-.6.13-.59.53-.44,1l0,0-.06.06a.66.66,0,0,1-.39.27l-.13.06c-.15-.07-.32,0-.47,0s-.21.25-.38.3l-.27.6c-.3.1-.6.23-.76-.22s-.44-.3-.71-.35H46c-.32-.18-.71-.19-1-.41s-.08-.56-.27-.79l-.16-.19c.65-.56.62-.79-.1-1.32-.09-.22-.21-.43,0-.65a.39.39,0,0,0,.12-.12,6.9,6.9,0,0,0,.5-1.68A1.39,1.39,0,0,0,45,60.4s0-.07,0-.11.06.11.13.12c.26-.15.3-.44.44-.68a8,8,0,0,1,0-1,1.89,1.89,0,0,0-.05-.37c0-.16.07,0,.1,0a3,3,0,0,0,.58-.25.27.27,0,0,0,.06-.13.43.43,0,0,0,.37.06.53.53,0,0,1,.19,0c-.07,0-.15.09-.11.19a.88.88,0,0,0,1,0c.13,0-.16-.29.12-.18s.37,0,.54.12.18.2.28.28h0a.15.15,0,0,0,.15.06.65.65,0,0,0,.29-.17,1.11,1.11,0,0,1,.15-.15.77.77,0,0,0,0,.27.33.33,0,0,0,.21.18h0c.09.42.43.69.61,1.06l0,0a.61.61,0,0,0,0,.37c.11.21.06.51.37.59.12,0,0-.19.13-.23a1.13,1.13,0,0,0-.09.48c.23.67.84,1.14,1,1.84C51.61,63,51.72,63.25,51.52,63.48Z" transform="translate(-21.07 -27.11)"/><path class="cls-7" d="M61.86,55.25a4.49,4.49,0,0,0,.76-2.5,4.57,4.57,0,0,0-9.14,0,4.49,4.49,0,0,0,1,2.77,12.24,12.24,0,0,1,2.3-.7A18.54,18.54,0,0,1,61.86,55.25Z" transform="translate(-21.07 -27.11)"/><text class="cls-8" transform="translate(23.06 48.01) scale(1.01 1)">20</text><text class="cls-8" transform="translate(28.78 48.01) scale(1.01 1)">23</text><circle class="cls-5" cx="73.63" cy="64.71" r="1.21" transform="translate(-45.41 40.94) rotate(-43.26)"/><circle class="cls-5" cx="26.21" cy="64.71" r="1.21" transform="translate(-58.29 8.44) rotate(-43.26)"/></g></svg>